<svg width="24" height="24" viewBox="0 0 24 24" fill="none" xmlns="http://www.w3.org/2000/svg">
<path fill-rule="evenodd" clip-rule="evenodd" d="M14.1148 6.20706C12.3236 7.01618 8.74359 8.69085 3.3749 11.2311C2.5031 11.6076 2.04642 11.9759 2.00485 12.336C1.93458 12.9447 2.63643 13.1844 3.59217 13.5107C3.72218 13.5551 3.85688 13.6011 3.99498 13.6499C4.93528 13.9818 6.20015 14.3702 6.8577 14.3856C7.45416 14.3996 8.11988 14.1325 8.85486 13.5844C13.871 9.90719 16.4604 8.04854 16.6229 8.00847C16.7376 7.9802 16.8965 7.94465 17.0042 8.04859C17.1119 8.15254 17.1013 8.34938 17.0899 8.40219C17.0204 8.72409 14.2654 11.5057 12.8396 12.9452C12.3952 13.3939 12.0799 13.7122 12.0155 13.7849C11.8711 13.9478 11.7239 14.1018 11.5825 14.2499C10.709 15.1644 10.0539 15.8502 11.6188 16.9702C12.3708 17.5084 12.9726 17.9534 13.573 18.3974C14.2286 18.8823 14.8826 19.366 15.7287 19.9683C15.9442 20.1218 16.1501 20.2812 16.3506 20.4364C17.1137 21.0272 17.7992 21.5579 18.6461 21.4733C19.1382 21.4241 19.6465 20.9216 19.9046 19.4228C20.5147 15.8808 21.714 8.20628 21.9911 5.0438C22.0154 4.76673 21.9848 4.41213 21.9603 4.25647C21.9358 4.10081 21.8845 3.87903 21.6982 3.71485C21.4776 3.52041 21.1369 3.4794 20.9846 3.48232C20.2919 3.49557 19.2292 3.89687 14.1148 6.20706Z" fill="white"/>
</svg>
