<svg width="913" height="206" viewBox="0 0 913 206" fill="none" xmlns="http://www.w3.org/2000/svg">
<g clip-path="url(#clip0_28_2)">
<path opacity="0.4" d="M572.56 34.592V32.72H574.232V34.592H572.56ZM572.56 21.768V19.888H574.232V21.768H572.56ZM573.48 33.24C572.68 33.24 571.965 33.096 571.336 32.808C570.707 32.52 570.189 32.112 569.784 31.584C569.384 31.0507 569.123 30.4213 569 29.696L570.656 29.432C570.816 30.1147 571.157 30.6587 571.68 31.064C572.203 31.464 572.829 31.664 573.56 31.664C574.285 31.664 574.875 31.4907 575.328 31.144C575.787 30.7973 576.016 30.3547 576.016 29.816C576.016 29.432 575.899 29.12 575.664 28.88C575.435 28.64 575.059 28.4373 574.536 28.272L571.832 27.44C570.232 26.944 569.432 25.984 569.432 24.56C569.432 23.888 569.592 23.304 569.912 22.808C570.237 22.312 570.693 21.928 571.28 21.656C571.867 21.384 572.552 21.248 573.336 21.248C574.088 21.2587 574.755 21.3973 575.336 21.664C575.923 21.9307 576.408 22.3147 576.792 22.816C577.181 23.3173 577.451 23.92 577.6 24.624L575.896 24.928C575.821 24.5173 575.664 24.1547 575.424 23.84C575.189 23.5253 574.891 23.28 574.528 23.104C574.171 22.928 573.768 22.8373 573.32 22.832C572.899 22.8213 572.52 22.888 572.184 23.032C571.853 23.1707 571.589 23.368 571.392 23.624C571.2 23.8747 571.104 24.16 571.104 24.48C571.104 24.832 571.24 25.1307 571.512 25.376C571.784 25.6213 572.213 25.832 572.8 26.008L574.92 26.624C575.891 26.912 576.592 27.2987 577.024 27.784C577.456 28.2693 577.672 28.9147 577.672 29.72C577.672 30.424 577.496 31.04 577.144 31.568C576.797 32.0907 576.309 32.5013 575.68 32.8C575.051 33.0933 574.317 33.24 573.48 33.24ZM582.478 34.592V32.72H584.15V34.592H582.478ZM582.478 21.768V19.888H584.15V21.768H582.478ZM583.398 33.24C582.598 33.24 581.883 33.096 581.254 32.808C580.625 32.52 580.107 32.112 579.702 31.584C579.302 31.0507 579.041 30.4213 578.918 29.696L580.574 29.432C580.734 30.1147 581.075 30.6587 581.598 31.064C582.121 31.464 582.747 31.664 583.478 31.664C584.203 31.664 584.793 31.4907 585.246 31.144C585.705 30.7973 585.934 30.3547 585.934 29.816C585.934 29.432 585.817 29.12 585.582 28.88C585.353 28.64 584.977 28.4373 584.454 28.272L581.75 27.44C580.15 26.944 579.35 25.984 579.35 24.56C579.35 23.888 579.51 23.304 579.83 22.808C580.155 22.312 580.611 21.928 581.198 21.656C581.785 21.384 582.47 21.248 583.254 21.248C584.006 21.2587 584.673 21.3973 585.254 21.664C585.841 21.9307 586.326 22.3147 586.71 22.816C587.099 23.3173 587.369 23.92 587.518 24.624L585.814 24.928C585.739 24.5173 585.582 24.1547 585.342 23.84C585.107 23.5253 584.809 23.28 584.446 23.104C584.089 22.928 583.686 22.8373 583.238 22.832C582.817 22.8213 582.438 22.888 582.102 23.032C581.771 23.1707 581.507 23.368 581.31 23.624C581.118 23.8747 581.022 24.16 581.022 24.48C581.022 24.832 581.158 25.1307 581.43 25.376C581.702 25.6213 582.131 25.832 582.718 26.008L584.838 26.624C585.809 26.912 586.51 27.2987 586.942 27.784C587.374 28.2693 587.59 28.9147 587.59 29.72C587.59 30.424 587.414 31.04 587.062 31.568C586.715 32.0907 586.227 32.5013 585.598 32.8C584.969 33.0933 584.235 33.24 583.398 33.24ZM592.396 34.592V32.72H594.068V34.592H592.396ZM592.396 21.768V19.888H594.068V21.768H592.396ZM593.316 33.24C592.516 33.24 591.802 33.096 591.172 32.808C590.543 32.52 590.026 32.112 589.62 31.584C589.22 31.0507 588.959 30.4213 588.836 29.696L590.492 29.432C590.652 30.1147 590.994 30.6587 591.516 31.064C592.039 31.464 592.666 31.664 593.396 31.664C594.122 31.664 594.711 31.4907 595.164 31.144C595.623 30.7973 595.852 30.3547 595.852 29.816C595.852 29.432 595.735 29.12 595.5 28.88C595.271 28.64 594.895 28.4373 594.372 28.272L591.668 27.44C590.068 26.944 589.268 25.984 589.268 24.56C589.268 23.888 589.428 23.304 589.748 22.808C590.074 22.312 590.53 21.928 591.116 21.656C591.703 21.384 592.388 21.248 593.172 21.248C593.924 21.2587 594.591 21.3973 595.172 21.664C595.759 21.9307 596.244 22.3147 596.628 22.816C597.018 23.3173 597.287 23.92 597.436 24.624L595.732 24.928C595.658 24.5173 595.5 24.1547 595.26 23.84C595.026 23.5253 594.727 23.28 594.364 23.104C594.007 22.928 593.604 22.8373 593.156 22.832C592.735 22.8213 592.356 22.888 592.02 23.032C591.69 23.1707 591.426 23.368 591.228 23.624C591.036 23.8747 590.94 24.16 590.94 24.48C590.94 24.832 591.076 25.1307 591.348 25.376C591.62 25.6213 592.05 25.832 592.636 26.008L594.756 26.624C595.727 26.912 596.428 27.2987 596.86 27.784C597.292 28.2693 597.508 28.9147 597.508 29.72C597.508 30.424 597.332 31.04 596.98 31.568C596.634 32.0907 596.146 32.5013 595.516 32.8C594.887 33.0933 594.154 33.24 593.316 33.24Z" fill="white"/>
<path opacity="0.4" d="M571.838 185L575.582 173.48H577.99L581.734 185H579.998L576.55 174.488H576.982L573.574 185H571.838ZM573.782 182.4V180.832H579.798V182.4H573.782ZM583.009 185V173.48H587.665C587.777 173.48 587.915 173.485 588.081 173.496C588.246 173.501 588.403 173.517 588.553 173.544C589.193 173.645 589.726 173.864 590.153 174.2C590.585 174.536 590.907 174.96 591.121 175.472C591.334 175.984 591.441 176.549 591.441 177.168C591.441 177.792 591.334 178.36 591.121 178.872C590.907 179.384 590.585 179.808 590.153 180.144C589.726 180.48 589.193 180.699 588.553 180.8C588.403 180.821 588.243 180.837 588.073 180.848C587.907 180.859 587.771 180.864 587.665 180.864H584.681V185H583.009ZM584.681 179.28H587.601C587.707 179.28 587.825 179.275 587.953 179.264C588.086 179.253 588.211 179.235 588.329 179.208C588.67 179.128 588.945 178.981 589.153 178.768C589.361 178.549 589.51 178.299 589.601 178.016C589.691 177.733 589.737 177.451 589.737 177.168C589.737 176.885 589.691 176.605 589.601 176.328C589.51 176.045 589.361 175.797 589.153 175.584C588.945 175.365 588.67 175.216 588.329 175.136C588.211 175.104 588.086 175.083 587.953 175.072C587.825 175.061 587.707 175.056 587.601 175.056H584.681V179.28ZM593.04 185V173.48H594.712V185H593.04Z" fill="white"/>
<path opacity="0.4" d="M727.498 27.7425C727.909 27.3324 727.909 26.6676 727.498 26.2575L720.816 19.5754C720.406 19.1653 719.741 19.1653 719.331 19.5754C718.921 19.9854 718.921 20.6503 719.331 21.0603L725.271 27L719.331 32.9397C718.921 33.3497 718.921 34.0146 719.331 34.4246C719.741 34.8347 720.406 34.8347 720.816 34.4246L727.498 27.7425ZM610.756 28.05H726.756V25.95H610.756V28.05Z" fill="url(#paint0_linear_28_2)"/>
<path opacity="0.4" d="M727.498 179.742C727.909 179.332 727.909 178.668 727.498 178.258L720.816 171.575C720.406 171.165 719.741 171.165 719.331 171.575C718.921 171.985 718.921 172.65 719.331 173.06L725.271 179L719.331 184.94C718.921 185.35 718.921 186.015 719.331 186.425C719.741 186.835 720.406 186.835 720.816 186.425L727.498 179.742ZM610.756 180.05H726.756V177.95H610.756V180.05Z" fill="url(#paint1_linear_28_2)"/>
<path d="M539.391 154H357.609C350.093 154 344 159.014 344 165.2V193.8C344 199.986 350.093 205 357.609 205H539.391C546.907 205 553 199.986 553 193.8V165.2C553 159.014 546.907 154 539.391 154Z" fill="#6A5790" fill-opacity="0.8"/>
<path d="M421.333 178.333H421.342" stroke="#FFFEFE" stroke-width="1.4" stroke-linecap="round" stroke-linejoin="round"/>
<path d="M425.067 172.733V170.866C425.067 170.371 424.87 169.896 424.52 169.546C424.17 169.196 423.695 169 423.2 169H419.467C418.971 169 418.497 169.196 418.147 169.546C417.797 169.896 417.6 170.371 417.6 170.866V172.733" stroke="#FFFEFE" stroke-width="1.4" stroke-linecap="round" stroke-linejoin="round"/>
<path d="M430.667 179.266C427.897 181.095 424.652 182.07 421.333 182.07C418.015 182.07 414.769 181.095 412 179.266" stroke="#FFFEFE" stroke-width="1.4" stroke-linecap="round" stroke-linejoin="round"/>
<path d="M428.8 172.733H413.867C412.836 172.733 412 173.569 412 174.6V183.933C412 184.964 412.836 185.8 413.867 185.8H428.8C429.831 185.8 430.667 184.964 430.667 183.933V174.6C430.667 173.569 429.831 172.733 428.8 172.733Z" stroke="#FFFEFE" stroke-width="1.4" stroke-linecap="round" stroke-linejoin="round"/>
<path d="M445.337 184.333V172.813H449.865C450.596 172.813 451.209 172.962 451.705 173.261C452.201 173.56 452.574 173.946 452.825 174.421C453.076 174.89 453.201 175.386 453.201 175.909C453.201 176.544 453.044 177.088 452.729 177.541C452.42 177.994 452.001 178.304 451.473 178.469L451.457 178.077C452.193 178.258 452.758 178.613 453.153 179.141C453.548 179.664 453.745 180.274 453.745 180.973C453.745 181.65 453.609 182.24 453.337 182.741C453.07 183.242 452.678 183.634 452.161 183.917C451.649 184.194 451.028 184.333 450.297 184.333H445.337ZM447.033 182.741H450.041C450.42 182.741 450.758 182.669 451.057 182.525C451.361 182.381 451.598 182.176 451.769 181.909C451.945 181.637 452.033 181.314 452.033 180.941C452.033 180.594 451.956 180.282 451.801 180.005C451.652 179.722 451.433 179.501 451.145 179.341C450.862 179.176 450.529 179.093 450.145 179.093H447.033V182.741ZM447.033 177.517H449.841C450.15 177.517 450.428 177.456 450.673 177.333C450.924 177.205 451.121 177.024 451.265 176.789C451.414 176.549 451.489 176.261 451.489 175.925C451.489 175.477 451.34 175.109 451.041 174.821C450.742 174.533 450.342 174.389 449.841 174.389H447.033V177.517ZM456.345 188.173L458.017 183.621L458.041 184.965L454.273 175.693H456.017L458.833 182.853H458.321L461.009 175.693H462.705L457.937 188.173H456.345ZM463.798 184.333V172.813H468.326C469.057 172.813 469.67 172.962 470.166 173.261C470.662 173.56 471.036 173.946 471.286 174.421C471.537 174.89 471.662 175.386 471.662 175.909C471.662 176.544 471.505 177.088 471.19 177.541C470.881 177.994 470.462 178.304 469.934 178.469L469.918 178.077C470.654 178.258 471.22 178.613 471.614 179.141C472.009 179.664 472.206 180.274 472.206 180.973C472.206 181.65 472.07 182.24 471.798 182.741C471.532 183.242 471.14 183.634 470.622 183.917C470.11 184.194 469.489 184.333 468.758 184.333H463.798ZM465.494 182.741H468.502C468.881 182.741 469.22 182.669 469.518 182.525C469.822 182.381 470.06 182.176 470.23 181.909C470.406 181.637 470.494 181.314 470.494 180.941C470.494 180.594 470.417 180.282 470.262 180.005C470.113 179.722 469.894 179.501 469.606 179.341C469.324 179.176 468.99 179.093 468.606 179.093H465.494V182.741ZM465.494 177.517H468.302C468.612 177.517 468.889 177.456 469.134 177.333C469.385 177.205 469.582 177.024 469.726 176.789C469.876 176.549 469.95 176.261 469.95 175.925C469.95 175.477 469.801 175.109 469.502 174.821C469.204 174.533 468.804 174.389 468.302 174.389H465.494V177.517ZM473.798 184.333V172.813H475.47V184.333H473.798ZM480.585 184.333V174.389H476.753V172.813H486.089V174.389H482.257V184.333H480.585Z" fill="#F5F4FF"/>
<path d="M901.556 155H751.956C745.77 155 740.756 160.014 740.756 166.2V194.8C740.756 200.986 745.77 206 751.956 206H901.556C907.742 206 912.756 200.986 912.756 194.8V166.2C912.756 160.014 907.742 155 901.556 155Z" fill="#6A5790"/>
<path d="M809.769 186.5L813.513 174.98H815.921L819.665 186.5H817.929L814.481 175.988H814.913L811.505 186.5H809.769ZM811.713 183.9V182.332H817.729V183.9H811.713ZM820.94 186.5V174.98H825.596C825.708 174.98 825.847 174.985 826.012 174.996C826.178 175.001 826.335 175.017 826.484 175.044C827.124 175.145 827.658 175.364 828.084 175.7C828.516 176.036 828.839 176.46 829.052 176.972C829.266 177.484 829.372 178.049 829.372 178.668C829.372 179.292 829.266 179.86 829.052 180.372C828.839 180.884 828.516 181.308 828.084 181.644C827.658 181.98 827.124 182.199 826.484 182.3C826.335 182.321 826.175 182.337 826.004 182.348C825.839 182.359 825.703 182.364 825.596 182.364H822.612V186.5H820.94ZM822.612 180.78H825.532C825.639 180.78 825.756 180.775 825.884 180.764C826.018 180.753 826.143 180.735 826.26 180.708C826.602 180.628 826.876 180.481 827.084 180.268C827.292 180.049 827.442 179.799 827.532 179.516C827.623 179.233 827.668 178.951 827.668 178.668C827.668 178.385 827.623 178.105 827.532 177.828C827.442 177.545 827.292 177.297 827.084 177.084C826.876 176.865 826.602 176.716 826.26 176.636C826.143 176.604 826.018 176.583 825.884 176.572C825.756 176.561 825.639 176.556 825.532 176.556H822.612V180.78ZM830.972 186.5V174.98H832.644V186.5H830.972ZM839.062 186.74C838.235 186.74 837.489 186.599 836.822 186.316C836.161 186.028 835.614 185.62 835.182 185.092C834.755 184.559 834.478 183.927 834.35 183.196L836.094 182.932C836.27 183.636 836.638 184.185 837.198 184.58C837.758 184.969 838.411 185.164 839.158 185.164C839.622 185.164 840.049 185.092 840.438 184.948C840.827 184.799 841.139 184.588 841.374 184.316C841.614 184.039 841.734 183.708 841.734 183.324C841.734 183.116 841.697 182.932 841.622 182.772C841.553 182.612 841.454 182.473 841.326 182.356C841.203 182.233 841.051 182.129 840.87 182.044C840.694 181.953 840.499 181.876 840.286 181.812L837.334 180.94C837.046 180.855 836.753 180.745 836.454 180.612C836.155 180.473 835.881 180.295 835.63 180.076C835.385 179.852 835.185 179.577 835.03 179.252C834.875 178.921 834.798 178.521 834.798 178.052C834.798 177.343 834.979 176.743 835.342 176.252C835.71 175.756 836.206 175.383 836.83 175.132C837.454 174.876 838.153 174.748 838.926 174.748C839.705 174.759 840.401 174.897 841.014 175.164C841.633 175.431 842.145 175.815 842.55 176.316C842.961 176.812 843.243 177.415 843.398 178.124L841.606 178.428C841.526 177.996 841.355 177.625 841.094 177.316C840.833 177.001 840.513 176.761 840.134 176.596C839.755 176.425 839.345 176.337 838.902 176.332C838.475 176.321 838.083 176.385 837.726 176.524C837.374 176.663 837.091 176.857 836.878 177.108C836.67 177.359 836.566 177.647 836.566 177.972C836.566 178.292 836.659 178.551 836.846 178.748C837.033 178.945 837.262 179.103 837.534 179.22C837.811 179.332 838.086 179.425 838.358 179.5L840.486 180.1C840.753 180.175 841.054 180.276 841.39 180.404C841.731 180.527 842.059 180.7 842.374 180.924C842.694 181.148 842.958 181.447 843.166 181.82C843.374 182.188 843.478 182.652 843.478 183.212C843.478 183.793 843.361 184.305 843.126 184.748C842.891 185.185 842.569 185.553 842.158 185.852C841.753 186.145 841.283 186.367 840.75 186.516C840.217 186.665 839.654 186.74 839.062 186.74Z" fill="white"/>
<path d="M539.391 0H357.609C350.093 0 344 5.01441 344 11.2V40.8C344 46.9856 350.093 52 357.609 52H539.391C546.907 52 553 46.9856 553 40.8V11.2C553 5.01441 546.907 0 539.391 0Z" fill="#485390" fill-opacity="0.8"/>
<path d="M400.267 16H391.867C391.372 16 390.897 16.1967 390.547 16.5468C390.197 16.8968 390 17.3716 390 17.8667V32.8C390 33.2951 390.197 33.7699 390.547 34.12C390.897 34.47 391.372 34.6667 391.867 34.6667H403.067C403.562 34.6667 404.037 34.47 404.387 34.12C404.737 33.7699 404.933 33.2951 404.933 32.8V20.6667L400.267 16Z" stroke="white" stroke-width="1.4" stroke-linecap="round" stroke-linejoin="round"/>
<path d="M399.334 16V19.7334C399.334 20.2284 399.531 20.7032 399.881 21.0533C400.231 21.4034 400.706 21.6 401.201 21.6H404.934" stroke="white" stroke-width="1.4" stroke-linecap="round" stroke-linejoin="round"/>
<path d="M393.734 25.3334H401.201" stroke="white" stroke-width="1.4" stroke-linecap="round" stroke-linejoin="round"/>
<path d="M395.6 24.4001V26.2667" stroke="white" stroke-width="1.4" stroke-linecap="round" stroke-linejoin="round"/>
<path d="M393.734 30H401.201" stroke="white" stroke-width="1.4" stroke-linecap="round" stroke-linejoin="round"/>
<path d="M399.334 29.0669V30.9336" stroke="white" stroke-width="1.4" stroke-linecap="round" stroke-linejoin="round"/>
<path d="M901.556 1H751.956C745.77 1 740.756 6.01441 740.756 12.2V42.8C740.756 48.9856 745.77 54 751.956 54H901.556C907.742 54 912.756 48.9856 912.756 42.8V12.2C912.756 6.01441 907.742 1 901.556 1Z" fill="#485390"/>
<path d="M795.114 33.5V21.98H799.77C799.882 21.98 800.02 21.9853 800.186 21.996C800.351 22.0013 800.508 22.0173 800.658 22.044C801.298 22.1453 801.831 22.364 802.258 22.7C802.69 23.036 803.012 23.46 803.226 23.972C803.439 24.484 803.546 25.0493 803.546 25.668C803.546 26.5853 803.311 27.3773 802.842 28.044C802.372 28.7053 801.668 29.1187 800.73 29.284L800.05 29.364H796.786V33.5H795.114ZM801.85 33.5L799.578 28.812L801.266 28.38L803.762 33.5H801.85ZM796.786 27.78H799.706C799.812 27.78 799.93 27.7747 800.058 27.764C800.191 27.7533 800.316 27.7347 800.434 27.708C800.775 27.628 801.05 27.4813 801.258 27.268C801.466 27.0493 801.615 26.7987 801.706 26.516C801.796 26.2333 801.842 25.9507 801.842 25.668C801.842 25.3853 801.796 25.1053 801.706 24.828C801.615 24.5453 801.466 24.2973 801.258 24.084C801.05 23.8653 800.775 23.716 800.434 23.636C800.316 23.604 800.191 23.5827 800.058 23.572C799.93 23.5613 799.812 23.556 799.706 23.556H796.786V27.78ZM809.192 33.74C808.333 33.74 807.579 33.5533 806.928 33.18C806.283 32.8013 805.779 32.276 805.416 31.604C805.059 30.9267 804.88 30.1427 804.88 29.252C804.88 28.308 805.056 27.4893 805.408 26.796C805.765 26.1027 806.261 25.5667 806.896 25.188C807.531 24.8093 808.269 24.62 809.112 24.62C809.992 24.62 810.741 24.8253 811.36 25.236C811.979 25.6413 812.44 26.22 812.744 26.972C813.053 27.724 813.176 28.6173 813.112 29.652H811.44V29.044C811.429 28.0413 811.237 27.3 810.864 26.82C810.496 26.34 809.933 26.1 809.176 26.1C808.339 26.1 807.709 26.364 807.288 26.892C806.867 27.42 806.656 28.1827 806.656 29.18C806.656 30.1293 806.867 30.8653 807.288 31.388C807.709 31.9053 808.317 32.164 809.112 32.164C809.635 32.164 810.085 32.0467 810.464 31.812C810.848 31.572 811.147 31.2307 811.36 30.788L813 31.308C812.664 32.0813 812.155 32.6813 811.472 33.108C810.789 33.5293 810.029 33.74 809.192 33.74ZM806.112 29.652V28.348H812.28V29.652H806.112ZM816.77 33.5L813.634 24.86H815.322L817.618 31.404L819.914 24.86H821.602L818.466 33.5H816.77ZM826.403 33.74C825.545 33.74 824.79 33.5533 824.139 33.18C823.494 32.8013 822.99 32.276 822.627 31.604C822.27 30.9267 822.091 30.1427 822.091 29.252C822.091 28.308 822.267 27.4893 822.619 26.796C822.977 26.1027 823.473 25.5667 824.107 25.188C824.742 24.8093 825.481 24.62 826.323 24.62C827.203 24.62 827.953 24.8253 828.571 25.236C829.19 25.6413 829.651 26.22 829.955 26.972C830.265 27.724 830.387 28.6173 830.323 29.652H828.651V29.044C828.641 28.0413 828.449 27.3 828.075 26.82C827.707 26.34 827.145 26.1 826.387 26.1C825.55 26.1 824.921 26.364 824.499 26.892C824.078 27.42 823.867 28.1827 823.867 29.18C823.867 30.1293 824.078 30.8653 824.499 31.388C824.921 31.9053 825.529 32.164 826.323 32.164C826.846 32.164 827.297 32.0467 827.675 31.812C828.059 31.572 828.358 31.2307 828.571 30.788L830.211 31.308C829.875 32.0813 829.366 32.6813 828.683 33.108C828.001 33.5293 827.241 33.74 826.403 33.74ZM823.323 29.652V28.348H829.491V29.652H823.323ZM837.788 33.5V29.252C837.788 28.916 837.758 28.572 837.7 28.22C837.646 27.8627 837.54 27.532 837.38 27.228C837.225 26.924 837.004 26.6787 836.716 26.492C836.433 26.3053 836.062 26.212 835.604 26.212C835.305 26.212 835.022 26.2627 834.756 26.364C834.489 26.46 834.254 26.6173 834.052 26.836C833.854 27.0547 833.697 27.3427 833.58 27.7C833.468 28.0573 833.412 28.492 833.412 29.004L832.372 28.612C832.372 27.828 832.518 27.1373 832.812 26.54C833.105 25.9373 833.526 25.468 834.076 25.132C834.625 24.796 835.289 24.628 836.068 24.628C836.665 24.628 837.166 24.724 837.572 24.916C837.977 25.108 838.305 25.3613 838.556 25.676C838.812 25.9853 839.006 26.324 839.14 26.692C839.273 27.06 839.364 27.42 839.412 27.772C839.46 28.124 839.484 28.4333 839.484 28.7V33.5H837.788ZM831.716 33.5V24.86H833.212V27.356H833.412V33.5H831.716ZM844.664 33.732C844.066 33.732 843.565 33.636 843.16 33.444C842.754 33.252 842.424 33.0013 842.168 32.692C841.917 32.3773 841.725 32.036 841.592 31.668C841.458 31.3 841.368 30.94 841.32 30.588C841.272 30.236 841.248 29.9267 841.248 29.66V24.86H842.944V29.108C842.944 29.444 842.97 29.7907 843.024 30.148C843.082 30.5 843.189 30.828 843.344 31.132C843.504 31.436 843.725 31.6813 844.008 31.868C844.296 32.0547 844.669 32.148 845.128 32.148C845.426 32.148 845.709 32.1 845.976 32.004C846.242 31.9027 846.474 31.7427 846.672 31.524C846.874 31.3053 847.032 31.0173 847.144 30.66C847.261 30.3027 847.32 29.868 847.32 29.356L848.36 29.748C848.36 30.532 848.213 31.2253 847.92 31.828C847.626 32.4253 847.205 32.892 846.656 33.228C846.106 33.564 845.442 33.732 844.664 33.732ZM847.52 33.5V31.004H847.32V24.86H849.008V33.5H847.52ZM854.923 33.74C854.065 33.74 853.31 33.5533 852.659 33.18C852.014 32.8013 851.51 32.276 851.147 31.604C850.79 30.9267 850.611 30.1427 850.611 29.252C850.611 28.308 850.787 27.4893 851.139 26.796C851.497 26.1027 851.993 25.5667 852.627 25.188C853.262 24.8093 854.001 24.62 854.843 24.62C855.723 24.62 856.473 24.8253 857.091 25.236C857.71 25.6413 858.171 26.22 858.475 26.972C858.785 27.724 858.907 28.6173 858.843 29.652H857.171V29.044C857.161 28.0413 856.969 27.3 856.595 26.82C856.227 26.34 855.665 26.1 854.907 26.1C854.07 26.1 853.441 26.364 853.019 26.892C852.598 27.42 852.387 28.1827 852.387 29.18C852.387 30.1293 852.598 30.8653 853.019 31.388C853.441 31.9053 854.049 32.164 854.843 32.164C855.366 32.164 855.817 32.0467 856.195 31.812C856.579 31.572 856.878 31.2307 857.091 30.788L858.731 31.308C858.395 32.0813 857.886 32.6813 857.203 33.108C856.521 33.5293 855.761 33.74 854.923 33.74ZM851.843 29.652V28.348H858.011V29.652H851.843Z" fill="white"/>
<path opacity="0.4" d="M331.422 178.441C331.832 178.851 331.832 179.516 331.422 179.926L324.74 186.608C324.33 187.018 323.665 187.018 323.255 186.608C322.845 186.198 322.845 185.533 323.255 185.123L329.195 179.183L323.255 173.244C322.845 172.834 322.845 172.169 323.255 171.759C323.665 171.349 324.33 171.349 324.74 171.759L331.422 178.441ZM86.6375 57.2899V167.983H84.5375V57.2899H86.6375ZM96.7875 178.133H330.68V180.233H96.7875V178.133ZM86.6375 167.983C86.6375 173.589 91.1818 178.133 96.7875 178.133V180.233C90.022 180.233 84.5375 174.749 84.5375 167.983H86.6375Z" fill="url(#paint2_linear_28_2)"/>
<path opacity="0.4" d="M331.422 27.5591C331.832 27.149 331.832 26.4842 331.422 26.0741L324.74 19.392C324.33 18.9819 323.665 18.9819 323.255 19.392C322.845 19.802 322.845 20.4669 323.255 20.8769L329.195 26.8166L323.255 32.7563C322.845 33.1664 322.845 33.8312 323.255 34.2412C323.665 34.6513 324.33 34.6513 324.74 34.2412L331.422 27.5591ZM86.6375 179.183V38.0166H84.5375V179.183H86.6375ZM96.7875 27.8666H330.68V25.7666H96.7875V27.8666ZM86.6375 38.0166C86.6375 32.4109 91.1818 27.8666 96.7875 27.8666V25.7666C90.022 25.7666 84.5375 31.2511 84.5375 38.0166H86.6375Z" fill="url(#paint3_linear_28_2)"/>
<path d="M160.8 77H11.2C5.01441 77 0 82.0144 0 88.2V117.8C0 123.986 5.01441 129 11.2 129H160.8C166.986 129 172 123.986 172 117.8V88.2C172 82.0144 166.986 77 160.8 77Z" fill="#527D8E"/>
<path d="M54.8999 103.933C57.4772 103.933 59.5666 101.844 59.5666 99.2668C59.5666 96.6894 57.4772 94.6001 54.8999 94.6001C52.3226 94.6001 50.2332 96.6894 50.2332 99.2668C50.2332 101.844 52.3226 103.933 54.8999 103.933Z" stroke="#FFFEFE" stroke-width="1.4" stroke-linecap="round" stroke-linejoin="round"/>
<path d="M62.3664 111.4C62.3664 109.42 61.5798 107.521 60.1795 106.12C58.7792 104.72 56.8801 103.933 54.8998 103.933C52.9195 103.933 51.0203 104.72 49.62 106.12C48.2198 107.521 47.4331 109.42 47.4331 111.4" stroke="#FFFEFE" stroke-width="1.4" stroke-linecap="round" stroke-linejoin="round"/>
<path d="M78.9137 109V97.48H80.5857V102.448H86.3457V97.48H88.0257V109H86.3457V104.024H80.5857V109H78.9137ZM93.8651 109.24C93.0011 109.24 92.2518 109.045 91.6171 108.656C90.9824 108.267 90.4918 107.731 90.1451 107.048C89.8038 106.36 89.6331 105.568 89.6331 104.672C89.6331 103.771 89.8091 102.979 90.1611 102.296C90.5131 101.608 91.0064 101.075 91.6411 100.696C92.2758 100.312 93.0171 100.12 93.8651 100.12C94.7291 100.12 95.4784 100.315 96.1131 100.704C96.7478 101.093 97.2384 101.629 97.5851 102.312C97.9318 102.995 98.1051 103.781 98.1051 104.672C98.1051 105.573 97.9291 106.368 97.5771 107.056C97.2304 107.739 96.7398 108.275 96.1051 108.664C95.4704 109.048 94.7238 109.24 93.8651 109.24ZM93.8651 107.664C94.6918 107.664 95.3078 107.387 95.7131 106.832C96.1238 106.272 96.3291 105.552 96.3291 104.672C96.3291 103.771 96.1211 103.051 95.7051 102.512C95.2944 101.968 94.6811 101.696 93.8651 101.696C93.3051 101.696 92.8438 101.824 92.4811 102.08C92.1184 102.331 91.8491 102.68 91.6731 103.128C91.4971 103.571 91.4091 104.085 91.4091 104.672C91.4091 105.579 91.6171 106.304 92.0331 106.848C92.4491 107.392 93.0598 107.664 93.8651 107.664ZM99.8631 109V97.24H101.535V109H99.8631ZM107.209 109.24C106.404 109.24 105.708 109.04 105.121 108.64C104.54 108.24 104.089 107.696 103.769 107.008C103.455 106.315 103.297 105.536 103.297 104.672C103.297 103.803 103.457 103.027 103.777 102.344C104.097 101.656 104.551 101.115 105.137 100.72C105.729 100.32 106.431 100.12 107.241 100.12C108.057 100.12 108.743 100.32 109.297 100.72C109.857 101.115 110.279 101.656 110.561 102.344C110.849 103.032 110.993 103.808 110.993 104.672C110.993 105.536 110.849 106.312 110.561 107C110.273 107.688 109.849 108.235 109.289 108.64C108.729 109.04 108.036 109.24 107.209 109.24ZM107.441 107.728C107.991 107.728 108.439 107.597 108.785 107.336C109.132 107.075 109.385 106.715 109.545 106.256C109.705 105.797 109.785 105.269 109.785 104.672C109.785 104.075 109.703 103.547 109.537 103.088C109.377 102.629 109.127 102.272 108.785 102.016C108.449 101.76 108.02 101.632 107.497 101.632C106.943 101.632 106.487 101.768 106.129 102.04C105.772 102.312 105.505 102.677 105.329 103.136C105.159 103.595 105.073 104.107 105.073 104.672C105.073 105.243 105.159 105.76 105.329 106.224C105.505 106.683 105.767 107.048 106.113 107.32C106.465 107.592 106.908 107.728 107.441 107.728ZM109.785 109V102.784H109.593V97.48H111.273V109H109.785ZM117.184 109.24C116.325 109.24 115.571 109.053 114.92 108.68C114.275 108.301 113.771 107.776 113.408 107.104C113.051 106.427 112.872 105.643 112.872 104.752C112.872 103.808 113.048 102.989 113.4 102.296C113.757 101.603 114.253 101.067 114.888 100.688C115.523 100.309 116.261 100.12 117.104 100.12C117.984 100.12 118.733 100.325 119.352 100.736C119.971 101.141 120.432 101.72 120.736 102.472C121.045 103.224 121.168 104.117 121.104 105.152H119.432V104.544C119.421 103.541 119.229 102.8 118.856 102.32C118.488 101.84 117.925 101.6 117.168 101.6C116.331 101.6 115.701 101.864 115.28 102.392C114.859 102.92 114.648 103.683 114.648 104.68C114.648 105.629 114.859 106.365 115.28 106.888C115.701 107.405 116.309 107.664 117.104 107.664C117.627 107.664 118.077 107.547 118.456 107.312C118.84 107.072 119.139 106.731 119.352 106.288L120.992 106.808C120.656 107.581 120.147 108.181 119.464 108.608C118.781 109.029 118.021 109.24 117.184 109.24ZM114.104 105.152V103.848H120.272V105.152H114.104ZM122.739 109V100.36H124.227V102.456L124.019 102.184C124.125 101.907 124.264 101.653 124.435 101.424C124.605 101.189 124.803 100.997 125.027 100.848C125.245 100.688 125.488 100.565 125.755 100.48C126.027 100.389 126.304 100.336 126.587 100.32C126.869 100.299 127.141 100.312 127.403 100.36V101.928C127.12 101.853 126.805 101.832 126.459 101.864C126.117 101.896 125.803 102.005 125.515 102.192C125.243 102.368 125.027 102.581 124.867 102.832C124.712 103.083 124.6 103.363 124.531 103.672C124.461 103.976 124.427 104.299 124.427 104.64V109H122.739Z" fill="white"/>
<path d="M416.772 19.697L419.8 28.8561H419.919L422.942 19.697H425.26L421.158 31.3334H418.556L414.459 19.697H416.772ZM429.628 31.5039C428.753 31.5039 427.997 31.322 427.361 30.9584C426.728 30.591 426.242 30.072 425.901 29.4016C425.56 28.7273 425.389 27.9338 425.389 27.0209C425.389 26.1232 425.56 25.3353 425.901 24.6573C426.246 23.9754 426.727 23.4451 427.344 23.0664C427.961 22.6838 428.687 22.4925 429.52 22.4925C430.058 22.4925 430.566 22.5796 431.043 22.7539C431.524 22.9243 431.948 23.1895 432.316 23.5493C432.687 23.9092 432.978 24.3675 433.191 24.9243C433.403 25.4773 433.509 26.1364 433.509 26.9016V27.5323H426.355V26.1459H431.537C431.533 25.752 431.448 25.4016 431.282 25.0948C431.115 24.7842 430.882 24.5398 430.583 24.3618C430.287 24.1838 429.942 24.0948 429.549 24.0948C429.128 24.0948 428.759 24.197 428.441 24.4016C428.122 24.6023 427.874 24.8675 427.696 25.197C427.522 25.5228 427.433 25.8808 427.429 26.2709V27.4811C427.429 27.9887 427.522 28.4243 427.708 28.788C427.893 29.1478 428.153 29.4243 428.486 29.6175C428.819 29.8069 429.21 29.9016 429.657 29.9016C429.956 29.9016 430.227 29.8599 430.469 29.7766C430.711 29.6895 430.922 29.5626 431.1 29.3959C431.278 29.2292 431.412 29.0228 431.503 28.7766L433.424 28.9925C433.302 29.5001 433.071 29.9433 432.73 30.322C432.393 30.697 431.961 30.9887 431.435 31.197C430.908 31.4016 430.306 31.5039 429.628 31.5039ZM435.249 31.3334V22.6061H437.243V24.0607H437.334C437.493 23.5569 437.766 23.1686 438.152 22.8959C438.542 22.6194 438.987 22.4811 439.487 22.4811C439.601 22.4811 439.728 22.4868 439.868 22.4982C440.012 22.5058 440.131 22.519 440.226 22.5379V24.43C440.139 24.3997 440.001 24.3732 439.811 24.3504C439.626 24.3239 439.446 24.3107 439.272 24.3107C438.897 24.3107 438.559 24.3921 438.26 24.555C437.965 24.7141 437.732 24.9357 437.561 25.2198C437.391 25.5039 437.306 25.8315 437.306 26.2027V31.3334H435.249ZM441.593 31.3334V22.6061H443.649V31.3334H441.593ZM442.627 21.3675C442.301 21.3675 442.021 21.2595 441.786 21.0436C441.551 20.8239 441.433 20.5607 441.433 20.2539C441.433 19.9433 441.551 19.68 441.786 19.4641C442.021 19.2444 442.301 19.1345 442.627 19.1345C442.956 19.1345 443.237 19.2444 443.468 19.4641C443.702 19.68 443.82 19.9433 443.82 20.2539C443.82 20.5607 443.702 20.8239 443.468 21.0436C443.237 21.2595 442.956 21.3675 442.627 21.3675ZM450.185 22.6061V24.197H445.026V22.6061H450.185ZM446.316 31.3334V21.7823C446.316 21.1951 446.437 20.7065 446.679 20.3164C446.925 19.9262 447.255 19.6345 447.668 19.4414C448.081 19.2482 448.539 19.1516 449.043 19.1516C449.399 19.1516 449.715 19.18 449.992 19.2368C450.268 19.2936 450.473 19.3448 450.605 19.3902L450.196 20.9811C450.109 20.9546 449.999 20.9281 449.867 20.9016C449.734 20.8713 449.586 20.8561 449.424 20.8561C449.041 20.8561 448.77 20.9489 448.611 21.1345C448.456 21.3164 448.378 21.5777 448.378 21.9186V31.3334H446.316ZM453.074 34.6061C452.794 34.6061 452.534 34.5834 452.296 34.538C452.061 34.4963 451.873 34.447 451.733 34.3902L452.21 32.788C452.51 32.8751 452.777 32.9167 453.012 32.913C453.246 32.9092 453.453 32.8353 453.631 32.6914C453.813 32.5512 453.966 32.3164 454.091 31.9868L454.267 31.5152L451.103 22.6061H453.284L455.296 29.197H455.387L457.404 22.6061H459.591L456.097 32.3902C455.934 32.8523 455.718 33.2482 455.449 33.5777C455.18 33.9111 454.851 34.1648 454.46 34.3391C454.074 34.5171 453.612 34.6061 453.074 34.6061ZM465.074 31.3334V19.697H467.182V24.6232H472.574V19.697H474.688V31.3334H472.574V26.3902H467.182V31.3334H465.074ZM480.696 31.5039C479.844 31.5039 479.105 31.3164 478.48 30.9414C477.855 30.5664 477.371 30.0417 477.026 29.3675C476.685 28.6933 476.514 27.9054 476.514 27.0039C476.514 26.1023 476.685 25.3126 477.026 24.6345C477.371 23.9565 477.855 23.43 478.48 23.055C479.105 22.68 479.844 22.4925 480.696 22.4925C481.549 22.4925 482.287 22.68 482.912 23.055C483.537 23.43 484.02 23.9565 484.361 24.6345C484.706 25.3126 484.878 26.1023 484.878 27.0039C484.878 27.9054 484.706 28.6933 484.361 29.3675C484.02 30.0417 483.537 30.5664 482.912 30.9414C482.287 31.3164 481.549 31.5039 480.696 31.5039ZM480.708 29.8561C481.17 29.8561 481.556 29.7292 481.867 29.4754C482.177 29.2179 482.408 28.8732 482.56 28.4414C482.715 28.0095 482.793 27.5285 482.793 26.9982C482.793 26.4641 482.715 25.9811 482.56 25.5493C482.408 25.1137 482.177 24.7671 481.867 24.5095C481.556 24.252 481.17 24.1232 480.708 24.1232C480.234 24.1232 479.84 24.252 479.526 24.5095C479.215 24.7671 478.982 25.1137 478.827 25.5493C478.675 25.9811 478.6 26.4641 478.6 26.9982C478.6 27.5285 478.675 28.0095 478.827 28.4414C478.982 28.8732 479.215 29.2179 479.526 29.4754C479.84 29.7292 480.234 29.8561 480.708 29.8561ZM488.681 19.697V31.3334H486.624V19.697H488.681ZM494.034 31.4868C493.349 31.4868 492.735 31.3107 492.193 30.9584C491.652 30.6061 491.224 30.0948 490.909 29.4243C490.595 28.7539 490.438 27.9395 490.438 26.9811C490.438 26.0114 490.597 25.1933 490.915 24.5266C491.237 23.8561 491.671 23.3504 492.216 23.0095C492.762 22.6648 493.37 22.4925 494.04 22.4925C494.551 22.4925 494.972 22.5796 495.301 22.7539C495.631 22.9243 495.892 23.1308 496.085 23.3732C496.279 23.6118 496.428 23.8372 496.534 24.0493H496.62V19.697H498.682V31.3334H496.659V29.9584H496.534C496.428 30.1705 496.275 30.3959 496.074 30.6345C495.873 30.8694 495.608 31.0701 495.279 31.2368C494.949 31.4035 494.534 31.4868 494.034 31.4868ZM494.608 29.7993C495.044 29.7993 495.415 29.6819 495.722 29.447C496.029 29.2084 496.262 28.877 496.421 28.4527C496.58 28.0285 496.659 27.5342 496.659 26.9698C496.659 26.4054 496.58 25.9148 496.421 25.4982C496.265 25.0815 496.034 24.7576 495.728 24.5266C495.424 24.2955 495.051 24.18 494.608 24.18C494.15 24.18 493.767 24.2993 493.46 24.5379C493.154 24.7766 492.923 25.1061 492.767 25.5266C492.612 25.947 492.534 26.4281 492.534 26.9698C492.534 27.5152 492.612 28.002 492.767 28.43C492.926 28.8542 493.159 29.1895 493.466 29.4357C493.777 29.6781 494.157 29.7993 494.608 29.7993ZM500.874 31.3334V22.6061H502.931V31.3334H500.874ZM501.908 21.3675C501.582 21.3675 501.302 21.2595 501.067 21.0436C500.832 20.8239 500.715 20.5607 500.715 20.2539C500.715 19.9433 500.832 19.68 501.067 19.4641C501.302 19.2444 501.582 19.1345 501.908 19.1345C502.237 19.1345 502.518 19.2444 502.749 19.4641C502.984 19.68 503.101 19.9433 503.101 20.2539C503.101 20.5607 502.984 20.8239 502.749 21.0436C502.518 21.2595 502.237 21.3675 501.908 21.3675ZM507.103 26.2198V31.3334H505.046V22.6061H507.012V24.0891H507.114C507.315 23.6004 507.635 23.2122 508.074 22.9243C508.517 22.6364 509.065 22.4925 509.716 22.4925C510.318 22.4925 510.843 22.6213 511.29 22.8789C511.741 23.1364 512.089 23.5095 512.335 23.9982C512.585 24.4868 512.709 25.0796 512.705 25.7766V31.3334H510.648V26.0948C510.648 25.5114 510.496 25.055 510.193 24.7254C509.894 24.3959 509.479 24.2311 508.949 24.2311C508.589 24.2311 508.269 24.3107 507.989 24.4698C507.712 24.6251 507.495 24.8504 507.335 25.1459C507.18 25.4414 507.103 25.7993 507.103 26.2198ZM518.591 34.788C517.853 34.788 517.218 34.6876 516.688 34.4868C516.157 34.2898 515.731 34.0247 515.409 33.6914C515.087 33.358 514.864 32.9887 514.739 32.5834L516.591 32.1345C516.674 32.305 516.796 32.4736 516.955 32.6402C517.114 32.8107 517.328 32.9508 517.597 33.0607C517.87 33.1743 518.212 33.2311 518.625 33.2311C519.209 33.2311 519.692 33.0891 520.074 32.805C520.457 32.5247 520.648 32.0626 520.648 31.4186V29.7652H520.546C520.44 29.9773 520.284 30.1951 520.08 30.4186C519.879 30.6421 519.612 30.8296 519.279 30.9811C518.949 31.1326 518.534 31.2084 518.034 31.2084C517.364 31.2084 516.756 31.0512 516.21 30.7368C515.669 30.4186 515.237 29.9451 514.915 29.3164C514.597 28.6838 514.438 27.8921 514.438 26.9414C514.438 25.983 514.597 25.1743 514.915 24.5152C515.237 23.8523 515.671 23.3504 516.216 23.0095C516.762 22.6648 517.37 22.4925 518.04 22.4925C518.551 22.4925 518.972 22.5796 519.301 22.7539C519.635 22.9243 519.9 23.1308 520.097 23.3732C520.294 23.6118 520.443 23.8372 520.546 24.0493H520.659V22.6061H522.688V31.4754C522.688 32.2217 522.51 32.8391 522.154 33.3277C521.798 33.8164 521.311 34.1819 520.693 34.4243C520.076 34.6667 519.375 34.788 518.591 34.788ZM518.608 29.5948C519.044 29.5948 519.415 29.4887 519.722 29.2766C520.029 29.0645 520.262 28.7595 520.421 28.3618C520.58 27.9641 520.659 27.4868 520.659 26.93C520.659 26.3808 520.58 25.8997 520.421 25.4868C520.265 25.0739 520.034 24.7539 519.728 24.5266C519.424 24.2955 519.051 24.18 518.608 24.18C518.15 24.18 517.767 24.2993 517.46 24.5379C517.154 24.7766 516.923 25.1042 516.767 25.5209C516.612 25.9338 516.534 26.4035 516.534 26.93C516.534 27.4641 516.612 27.9319 516.767 28.3334C516.926 28.7311 517.159 29.0417 517.466 29.2652C517.777 29.4849 518.157 29.5948 518.608 29.5948Z" fill="white"/>
</g>
<defs>
<linearGradient id="paint0_linear_28_2" x1="610.756" y1="29" x2="726.756" y2="29" gradientUnits="userSpaceOnUse">
<stop stop-color="white" stop-opacity="0"/>
<stop offset="1" stop-color="white"/>
</linearGradient>
<linearGradient id="paint1_linear_28_2" x1="610.756" y1="181" x2="726.756" y2="181" gradientUnits="userSpaceOnUse">
<stop stop-color="white" stop-opacity="0"/>
<stop offset="1" stop-color="white"/>
</linearGradient>
<linearGradient id="paint2_linear_28_2" x1="518.27" y1="242.883" x2="92.5359" y2="40.2464" gradientUnits="userSpaceOnUse">
<stop stop-color="white"/>
<stop offset="1" stop-color="white" stop-opacity="0"/>
</linearGradient>
<linearGradient id="paint3_linear_28_2" x1="518.27" y1="-52.8074" x2="62.2111" y2="120.848" gradientUnits="userSpaceOnUse">
<stop stop-color="white"/>
<stop offset="1" stop-color="white" stop-opacity="0"/>
</linearGradient>
<clipPath id="clip0_28_2">
<rect width="913" height="206" fill="white"/>
</clipPath>
</defs>
</svg>
