<svg width="887" height="206" viewBox="0 0 887 206" fill="none" xmlns="http://www.w3.org/2000/svg">
<path opacity="0.4" d="M546.804 34.592V32.72H548.476V34.592H546.804ZM546.804 21.768V19.888H548.476V21.768H546.804ZM547.724 33.24C546.924 33.24 546.209 33.096 545.58 32.808C544.951 32.52 544.433 32.112 544.028 31.584C543.628 31.0507 543.367 30.4213 543.244 29.696L544.9 29.432C545.06 30.1147 545.401 30.6587 545.924 31.064C546.447 31.464 547.073 31.664 547.804 31.664C548.529 31.664 549.119 31.4907 549.572 31.144C550.031 30.7973 550.26 30.3547 550.26 29.816C550.26 29.432 550.143 29.12 549.908 28.88C549.679 28.64 549.303 28.4373 548.78 28.272L546.076 27.44C544.476 26.944 543.676 25.984 543.676 24.56C543.676 23.888 543.836 23.304 544.156 22.808C544.481 22.312 544.937 21.928 545.524 21.656C546.111 21.384 546.796 21.248 547.58 21.248C548.332 21.2587 548.999 21.3973 549.58 21.664C550.167 21.9307 550.652 22.3147 551.036 22.816C551.425 23.3173 551.695 23.92 551.844 24.624L550.14 24.928C550.065 24.5173 549.908 24.1547 549.668 23.84C549.433 23.5253 549.135 23.28 548.772 23.104C548.415 22.928 548.012 22.8373 547.564 22.832C547.143 22.8213 546.764 22.888 546.428 23.032C546.097 23.1707 545.833 23.368 545.636 23.624C545.444 23.8747 545.348 24.16 545.348 24.48C545.348 24.832 545.484 25.1307 545.756 25.376C546.028 25.6213 546.457 25.832 547.044 26.008L549.164 26.624C550.135 26.912 550.836 27.2987 551.268 27.784C551.7 28.2693 551.916 28.9147 551.916 29.72C551.916 30.424 551.74 31.04 551.388 31.568C551.041 32.0907 550.553 32.5013 549.924 32.8C549.295 33.0933 548.561 33.24 547.724 33.24ZM556.722 34.592V32.72H558.394V34.592H556.722ZM556.722 21.768V19.888H558.394V21.768H556.722ZM557.642 33.24C556.842 33.24 556.127 33.096 555.498 32.808C554.869 32.52 554.351 32.112 553.946 31.584C553.546 31.0507 553.285 30.4213 553.162 29.696L554.818 29.432C554.978 30.1147 555.319 30.6587 555.842 31.064C556.365 31.464 556.991 31.664 557.722 31.664C558.447 31.664 559.037 31.4907 559.49 31.144C559.949 30.7973 560.178 30.3547 560.178 29.816C560.178 29.432 560.061 29.12 559.826 28.88C559.597 28.64 559.221 28.4373 558.698 28.272L555.994 27.44C554.394 26.944 553.594 25.984 553.594 24.56C553.594 23.888 553.754 23.304 554.074 22.808C554.399 22.312 554.855 21.928 555.442 21.656C556.029 21.384 556.714 21.248 557.498 21.248C558.25 21.2587 558.917 21.3973 559.498 21.664C560.085 21.9307 560.57 22.3147 560.954 22.816C561.343 23.3173 561.613 23.92 561.762 24.624L560.058 24.928C559.983 24.5173 559.826 24.1547 559.586 23.84C559.351 23.5253 559.053 23.28 558.69 23.104C558.333 22.928 557.93 22.8373 557.482 22.832C557.061 22.8213 556.682 22.888 556.346 23.032C556.015 23.1707 555.751 23.368 555.554 23.624C555.362 23.8747 555.266 24.16 555.266 24.48C555.266 24.832 555.402 25.1307 555.674 25.376C555.946 25.6213 556.375 25.832 556.962 26.008L559.082 26.624C560.053 26.912 560.754 27.2987 561.186 27.784C561.618 28.2693 561.834 28.9147 561.834 29.72C561.834 30.424 561.658 31.04 561.306 31.568C560.959 32.0907 560.471 32.5013 559.842 32.8C559.213 33.0933 558.479 33.24 557.642 33.24ZM566.64 34.592V32.72H568.312V34.592H566.64ZM566.64 21.768V19.888H568.312V21.768H566.64ZM567.56 33.24C566.76 33.24 566.046 33.096 565.416 32.808C564.787 32.52 564.27 32.112 563.864 31.584C563.464 31.0507 563.203 30.4213 563.08 29.696L564.736 29.432C564.896 30.1147 565.238 30.6587 565.76 31.064C566.283 31.464 566.91 31.664 567.64 31.664C568.366 31.664 568.955 31.4907 569.408 31.144C569.867 30.7973 570.096 30.3547 570.096 29.816C570.096 29.432 569.979 29.12 569.744 28.88C569.515 28.64 569.139 28.4373 568.616 28.272L565.912 27.44C564.312 26.944 563.512 25.984 563.512 24.56C563.512 23.888 563.672 23.304 563.992 22.808C564.318 22.312 564.774 21.928 565.36 21.656C565.947 21.384 566.632 21.248 567.416 21.248C568.168 21.2587 568.835 21.3973 569.416 21.664C570.003 21.9307 570.488 22.3147 570.872 22.816C571.262 23.3173 571.531 23.92 571.68 24.624L569.976 24.928C569.902 24.5173 569.744 24.1547 569.504 23.84C569.27 23.5253 568.971 23.28 568.608 23.104C568.251 22.928 567.848 22.8373 567.4 22.832C566.979 22.8213 566.6 22.888 566.264 23.032C565.934 23.1707 565.67 23.368 565.472 23.624C565.28 23.8747 565.184 24.16 565.184 24.48C565.184 24.832 565.32 25.1307 565.592 25.376C565.864 25.6213 566.294 25.832 566.88 26.008L569 26.624C569.971 26.912 570.672 27.2987 571.104 27.784C571.536 28.2693 571.752 28.9147 571.752 29.72C571.752 30.424 571.576 31.04 571.224 31.568C570.878 32.0907 570.39 32.5013 569.76 32.8C569.131 33.0933 568.398 33.24 567.56 33.24Z" fill="white"/>
<path opacity="0.4" d="M546.082 185L549.826 173.48H552.234L555.978 185H554.242L550.794 174.488H551.226L547.818 185H546.082ZM548.026 182.4V180.832H554.042V182.4H548.026ZM557.253 185V173.48H561.909C562.021 173.48 562.159 173.485 562.325 173.496C562.49 173.501 562.647 173.517 562.797 173.544C563.437 173.645 563.97 173.864 564.397 174.2C564.829 174.536 565.151 174.96 565.365 175.472C565.578 175.984 565.685 176.549 565.685 177.168C565.685 177.792 565.578 178.36 565.365 178.872C565.151 179.384 564.829 179.808 564.397 180.144C563.97 180.48 563.437 180.699 562.797 180.8C562.647 180.821 562.487 180.837 562.317 180.848C562.151 180.859 562.015 180.864 561.909 180.864H558.925V185H557.253ZM558.925 179.28H561.845C561.951 179.28 562.069 179.275 562.197 179.264C562.33 179.253 562.455 179.235 562.573 179.208C562.914 179.128 563.189 178.981 563.397 178.768C563.605 178.549 563.754 178.299 563.845 178.016C563.935 177.733 563.981 177.451 563.981 177.168C563.981 176.885 563.935 176.605 563.845 176.328C563.754 176.045 563.605 175.797 563.397 175.584C563.189 175.365 562.914 175.216 562.573 175.136C562.455 175.104 562.33 175.083 562.197 175.072C562.069 175.061 561.951 175.056 561.845 175.056H558.925V179.28ZM567.284 185V173.48H568.956V185H567.284Z" fill="white"/>
<path opacity="0.4" d="M701.742 27.7425C702.153 27.3324 702.153 26.6676 701.742 26.2575L695.06 19.5754C694.65 19.1653 693.985 19.1653 693.575 19.5754C693.165 19.9854 693.165 20.6503 693.575 21.0603L699.515 27L693.575 32.9397C693.165 33.3497 693.165 34.0146 693.575 34.4246C693.985 34.8347 694.65 34.8347 695.06 34.4246L701.742 27.7425ZM585 28.05L701 28.05V25.95L585 25.95V28.05Z" fill="url(#paint0_linear_1_15046)"/>
<path opacity="0.4" d="M701.742 179.742C702.153 179.332 702.153 178.668 701.742 178.258L695.06 171.575C694.65 171.165 693.985 171.165 693.575 171.575C693.165 171.985 693.165 172.65 693.575 173.06L699.515 179L693.575 184.94C693.165 185.35 693.165 186.015 693.575 186.425C693.985 186.835 694.65 186.835 695.06 186.425L701.742 179.742ZM585 180.05H701V177.95H585V180.05Z" fill="url(#paint1_linear_1_15046)"/>
<rect x="344" y="154" width="172" height="51" rx="11.2" fill="#6A5790" fill-opacity="0.8"/>
<path d="M402.9 179.5H402.909" stroke="#FFFEFE" stroke-width="1.4" stroke-linecap="round" stroke-linejoin="round"/>
<path d="M406.634 173.9V172.033C406.634 171.538 406.437 171.063 406.087 170.713C405.737 170.363 405.262 170.167 404.767 170.167H401.034C400.538 170.167 400.064 170.363 399.714 170.713C399.364 171.063 399.167 171.538 399.167 172.033V173.9" stroke="#FFFEFE" stroke-width="1.4" stroke-linecap="round" stroke-linejoin="round"/>
<path d="M412.234 180.433C409.464 182.262 406.219 183.237 402.9 183.237C399.582 183.237 396.336 182.262 393.567 180.433" stroke="#FFFEFE" stroke-width="1.4" stroke-linecap="round" stroke-linejoin="round"/>
<path d="M410.367 173.9H395.434C394.403 173.9 393.567 174.736 393.567 175.767V185.1C393.567 186.131 394.403 186.967 395.434 186.967H410.367C411.398 186.967 412.234 186.131 412.234 185.1V175.767C412.234 174.736 411.398 173.9 410.367 173.9Z" stroke="#FFFEFE" stroke-width="1.4" stroke-linecap="round" stroke-linejoin="round"/>
<path d="M426.904 185.5V173.98H431.432C432.163 173.98 432.776 174.129 433.272 174.428C433.768 174.727 434.141 175.113 434.392 175.588C434.643 176.057 434.768 176.553 434.768 177.076C434.768 177.711 434.611 178.255 434.296 178.708C433.987 179.161 433.568 179.471 433.04 179.636L433.024 179.244C433.76 179.425 434.325 179.78 434.72 180.308C435.115 180.831 435.312 181.441 435.312 182.14C435.312 182.817 435.176 183.407 434.904 183.908C434.637 184.409 434.245 184.801 433.728 185.084C433.216 185.361 432.595 185.5 431.864 185.5H426.904ZM428.6 183.908H431.608C431.987 183.908 432.325 183.836 432.624 183.692C432.928 183.548 433.165 183.343 433.336 183.076C433.512 182.804 433.6 182.481 433.6 182.108C433.6 181.761 433.523 181.449 433.368 181.172C433.219 180.889 433 180.668 432.712 180.508C432.429 180.343 432.096 180.26 431.712 180.26H428.6V183.908ZM428.6 178.684H431.408C431.717 178.684 431.995 178.623 432.24 178.5C432.491 178.372 432.688 178.191 432.832 177.956C432.981 177.716 433.056 177.428 433.056 177.092C433.056 176.644 432.907 176.276 432.608 175.988C432.309 175.7 431.909 175.556 431.408 175.556H428.6V178.684ZM437.912 189.34L439.584 184.788L439.608 186.132L435.84 176.86H437.584L440.4 184.02H439.888L442.576 176.86H444.272L439.504 189.34H437.912ZM445.365 185.5V173.98H449.893C450.624 173.98 451.237 174.129 451.733 174.428C452.229 174.727 452.603 175.113 452.853 175.588C453.104 176.057 453.229 176.553 453.229 177.076C453.229 177.711 453.072 178.255 452.757 178.708C452.448 179.161 452.029 179.471 451.501 179.636L451.485 179.244C452.221 179.425 452.787 179.78 453.181 180.308C453.576 180.831 453.773 181.441 453.773 182.14C453.773 182.817 453.637 183.407 453.365 183.908C453.099 184.409 452.707 184.801 452.189 185.084C451.677 185.361 451.056 185.5 450.325 185.5H445.365ZM447.061 183.908H450.069C450.448 183.908 450.787 183.836 451.085 183.692C451.389 183.548 451.627 183.343 451.797 183.076C451.973 182.804 452.061 182.481 452.061 182.108C452.061 181.761 451.984 181.449 451.829 181.172C451.68 180.889 451.461 180.668 451.173 180.508C450.891 180.343 450.557 180.26 450.173 180.26H447.061V183.908ZM447.061 178.684H449.869C450.179 178.684 450.456 178.623 450.701 178.5C450.952 178.372 451.149 178.191 451.293 177.956C451.443 177.716 451.517 177.428 451.517 177.092C451.517 176.644 451.368 176.276 451.069 175.988C450.771 175.7 450.371 175.556 449.869 175.556H447.061V178.684ZM455.365 185.5V173.98H457.037V185.5H455.365ZM462.152 185.5V175.556H458.32V173.98H467.656V175.556H463.824V185.5H462.152Z" fill="#F5F4FF"/>
<rect x="715" y="155" width="172" height="51" rx="11.2" fill="#6A5790"/>
<path d="M784.013 186.5L787.757 174.98H790.165L793.909 186.5H792.173L788.725 175.988H789.157L785.749 186.5H784.013ZM785.957 183.9V182.332H791.973V183.9H785.957ZM795.184 186.5V174.98H799.84C799.952 174.98 800.091 174.985 800.256 174.996C800.422 175.001 800.579 175.017 800.728 175.044C801.368 175.145 801.902 175.364 802.328 175.7C802.76 176.036 803.083 176.46 803.296 176.972C803.51 177.484 803.616 178.049 803.616 178.668C803.616 179.292 803.51 179.86 803.296 180.372C803.083 180.884 802.76 181.308 802.328 181.644C801.902 181.98 801.368 182.199 800.728 182.3C800.579 182.321 800.419 182.337 800.248 182.348C800.083 182.359 799.947 182.364 799.84 182.364H796.856V186.5H795.184ZM796.856 180.78H799.776C799.883 180.78 800 180.775 800.128 180.764C800.262 180.753 800.387 180.735 800.504 180.708C800.846 180.628 801.12 180.481 801.328 180.268C801.536 180.049 801.686 179.799 801.776 179.516C801.867 179.233 801.912 178.951 801.912 178.668C801.912 178.385 801.867 178.105 801.776 177.828C801.686 177.545 801.536 177.297 801.328 177.084C801.12 176.865 800.846 176.716 800.504 176.636C800.387 176.604 800.262 176.583 800.128 176.572C800 176.561 799.883 176.556 799.776 176.556H796.856V180.78ZM805.216 186.5V174.98H806.888V186.5H805.216ZM813.306 186.74C812.479 186.74 811.733 186.599 811.066 186.316C810.405 186.028 809.858 185.62 809.426 185.092C808.999 184.559 808.722 183.927 808.594 183.196L810.338 182.932C810.514 183.636 810.882 184.185 811.442 184.58C812.002 184.969 812.655 185.164 813.402 185.164C813.866 185.164 814.293 185.092 814.682 184.948C815.071 184.799 815.383 184.588 815.618 184.316C815.858 184.039 815.978 183.708 815.978 183.324C815.978 183.116 815.941 182.932 815.866 182.772C815.797 182.612 815.698 182.473 815.57 182.356C815.447 182.233 815.295 182.129 815.114 182.044C814.938 181.953 814.743 181.876 814.53 181.812L811.578 180.94C811.29 180.855 810.997 180.745 810.698 180.612C810.399 180.473 810.125 180.295 809.874 180.076C809.629 179.852 809.429 179.577 809.274 179.252C809.119 178.921 809.042 178.521 809.042 178.052C809.042 177.343 809.223 176.743 809.586 176.252C809.954 175.756 810.45 175.383 811.074 175.132C811.698 174.876 812.397 174.748 813.17 174.748C813.949 174.759 814.645 174.897 815.258 175.164C815.877 175.431 816.389 175.815 816.794 176.316C817.205 176.812 817.487 177.415 817.642 178.124L815.85 178.428C815.77 177.996 815.599 177.625 815.338 177.316C815.077 177.001 814.757 176.761 814.378 176.596C813.999 176.425 813.589 176.337 813.146 176.332C812.719 176.321 812.327 176.385 811.97 176.524C811.618 176.663 811.335 176.857 811.122 177.108C810.914 177.359 810.81 177.647 810.81 177.972C810.81 178.292 810.903 178.551 811.09 178.748C811.277 178.945 811.506 179.103 811.778 179.22C812.055 179.332 812.33 179.425 812.602 179.5L814.73 180.1C814.997 180.175 815.298 180.276 815.634 180.404C815.975 180.527 816.303 180.7 816.618 180.924C816.938 181.148 817.202 181.447 817.41 181.82C817.618 182.188 817.722 182.652 817.722 183.212C817.722 183.793 817.605 184.305 817.37 184.748C817.135 185.185 816.813 185.553 816.402 185.852C815.997 186.145 815.527 186.367 814.994 186.516C814.461 186.665 813.898 186.74 813.306 186.74Z" fill="white"/>
<rect x="344" width="172" height="52" rx="11.2" fill="#485390" fill-opacity="0.8"/>
<path d="M405.2 16.6666H396.8C396.305 16.6666 395.83 16.8633 395.48 17.2134C395.13 17.5634 394.933 18.0382 394.933 18.5333V33.4666C394.933 33.9617 395.13 34.4365 395.48 34.7866C395.83 35.1366 396.305 35.3333 396.8 35.3333H408C408.495 35.3333 408.97 35.1366 409.32 34.7866C409.67 34.4365 409.866 33.9617 409.866 33.4666V21.3333L405.2 16.6666Z" stroke="white" stroke-width="1.4" stroke-linecap="round" stroke-linejoin="round"/>
<path d="M404.267 16.6666V20.4C404.267 20.895 404.464 21.3698 404.814 21.7199C405.164 22.07 405.639 22.2666 406.134 22.2666H409.867" stroke="white" stroke-width="1.4" stroke-linecap="round" stroke-linejoin="round"/>
<path d="M398.667 26H406.134" stroke="white" stroke-width="1.4" stroke-linecap="round" stroke-linejoin="round"/>
<path d="M400.533 25.0667V26.9333" stroke="white" stroke-width="1.4" stroke-linecap="round" stroke-linejoin="round"/>
<path d="M398.667 30.6666H406.134" stroke="white" stroke-width="1.4" stroke-linecap="round" stroke-linejoin="round"/>
<path d="M404.267 29.7335V31.6002" stroke="white" stroke-width="1.4" stroke-linecap="round" stroke-linejoin="round"/>
<path d="M430.439 32.24C429.613 32.24 428.866 32.0987 428.199 31.816C427.538 31.528 426.991 31.12 426.559 30.592C426.133 30.0587 425.855 29.4267 425.727 28.696L427.471 28.432C427.647 29.136 428.015 29.6853 428.575 30.08C429.135 30.4693 429.789 30.664 430.535 30.664C430.999 30.664 431.426 30.592 431.815 30.448C432.205 30.2987 432.517 30.088 432.751 29.816C432.991 29.5387 433.111 29.208 433.111 28.824C433.111 28.616 433.074 28.432 432.999 28.272C432.93 28.112 432.831 27.9733 432.703 27.856C432.581 27.7333 432.429 27.6293 432.247 27.544C432.071 27.4533 431.877 27.376 431.663 27.312L428.711 26.44C428.423 26.3547 428.13 26.2453 427.831 26.112C427.533 25.9733 427.258 25.7947 427.007 25.576C426.762 25.352 426.562 25.0773 426.407 24.752C426.253 24.4213 426.175 24.0213 426.175 23.552C426.175 22.8427 426.357 22.2427 426.719 21.752C427.087 21.256 427.583 20.8827 428.207 20.632C428.831 20.376 429.53 20.248 430.303 20.248C431.082 20.2587 431.778 20.3973 432.391 20.664C433.01 20.9307 433.522 21.3147 433.927 21.816C434.338 22.312 434.621 22.9147 434.775 23.624L432.983 23.928C432.903 23.496 432.733 23.1253 432.471 22.816C432.21 22.5013 431.89 22.2613 431.511 22.096C431.133 21.9253 430.722 21.8373 430.279 21.832C429.853 21.8213 429.461 21.8853 429.103 22.024C428.751 22.1627 428.469 22.3573 428.255 22.608C428.047 22.8587 427.943 23.1467 427.943 23.472C427.943 23.792 428.037 24.0507 428.223 24.248C428.41 24.4453 428.639 24.6027 428.911 24.72C429.189 24.832 429.463 24.9253 429.735 25L431.863 25.6C432.13 25.6747 432.431 25.776 432.767 25.904C433.109 26.0267 433.437 26.2 433.751 26.424C434.071 26.648 434.335 26.9467 434.543 27.32C434.751 27.688 434.855 28.152 434.855 28.712C434.855 29.2933 434.738 29.8053 434.503 30.248C434.269 30.6853 433.946 31.0533 433.535 31.352C433.13 31.6453 432.661 31.8667 432.127 32.016C431.594 32.1653 431.031 32.24 430.439 32.24ZM441.344 32C440.8 32.1067 440.267 32.152 439.744 32.136C439.222 32.12 438.755 32.0187 438.344 31.832C437.934 31.6453 437.624 31.352 437.416 30.952C437.23 30.5947 437.128 30.232 437.112 29.864C437.102 29.4907 437.096 29.0693 437.096 28.6V20.96H438.776V28.52C438.776 28.8667 438.779 29.168 438.784 29.424C438.795 29.68 438.851 29.896 438.952 30.072C439.144 30.4027 439.448 30.592 439.864 30.64C440.286 30.6827 440.779 30.664 441.344 30.584V32ZM435.44 24.704V23.36H441.344V24.704H435.44ZM445.446 32.24C444.806 32.24 444.27 32.1227 443.838 31.888C443.406 31.648 443.078 31.3333 442.854 30.944C442.635 30.5493 442.526 30.1173 442.526 29.648C442.526 29.2107 442.603 28.8267 442.758 28.496C442.913 28.1653 443.142 27.8853 443.446 27.656C443.75 27.4213 444.123 27.232 444.566 27.088C444.95 26.976 445.385 26.8773 445.87 26.792C446.355 26.7067 446.865 26.6267 447.398 26.552C447.937 26.4773 448.47 26.4027 448.998 26.328L448.39 26.664C448.401 25.9867 448.257 25.4853 447.958 25.16C447.665 24.8293 447.158 24.664 446.438 24.664C445.985 24.664 445.569 24.7707 445.19 24.984C444.811 25.192 444.547 25.5387 444.398 26.024L442.838 25.544C443.051 24.8027 443.457 24.2133 444.054 23.776C444.657 23.3387 445.457 23.12 446.454 23.12C447.227 23.12 447.899 23.2533 448.47 23.52C449.046 23.7813 449.467 24.1973 449.734 24.768C449.873 25.0507 449.958 25.3493 449.99 25.664C450.022 25.9787 450.038 26.3173 450.038 26.68V32H448.558V30.024L448.846 30.28C448.489 30.9413 448.033 31.4347 447.478 31.76C446.929 32.08 446.251 32.24 445.446 32.24ZM445.742 30.872C446.217 30.872 446.625 30.7893 446.966 30.624C447.307 30.4533 447.582 30.2373 447.79 29.976C447.998 29.7147 448.134 29.4427 448.198 29.16C448.289 28.904 448.339 28.616 448.35 28.296C448.366 27.976 448.374 27.72 448.374 27.528L448.918 27.728C448.39 27.808 447.91 27.88 447.478 27.944C447.046 28.008 446.654 28.072 446.302 28.136C445.955 28.1947 445.646 28.2667 445.374 28.352C445.145 28.432 444.939 28.528 444.758 28.64C444.582 28.752 444.441 28.888 444.334 29.048C444.233 29.208 444.182 29.4027 444.182 29.632C444.182 29.856 444.238 30.064 444.35 30.256C444.462 30.4427 444.633 30.592 444.862 30.704C445.091 30.816 445.385 30.872 445.742 30.872ZM451.947 32L451.955 20.48H453.651V27.52L457.043 23.36H459.171L455.587 27.68L459.539 32H457.267L453.651 27.84V32H451.947ZM463.862 32.24C463.003 32.24 462.248 32.0533 461.598 31.68C460.952 31.3013 460.448 30.776 460.086 30.104C459.728 29.4267 459.55 28.6427 459.55 27.752C459.55 26.808 459.726 25.9893 460.078 25.296C460.435 24.6027 460.931 24.0667 461.566 23.688C462.2 23.3093 462.939 23.12 463.782 23.12C464.662 23.12 465.411 23.3253 466.03 23.736C466.648 24.1413 467.11 24.72 467.414 25.472C467.723 26.224 467.846 27.1173 467.782 28.152H466.11V27.544C466.099 26.5413 465.907 25.8 465.534 25.32C465.166 24.84 464.603 24.6 463.846 24.6C463.008 24.6 462.379 24.864 461.958 25.392C461.536 25.92 461.326 26.6827 461.326 27.68C461.326 28.6293 461.536 29.3653 461.958 29.888C462.379 30.4053 462.987 30.664 463.782 30.664C464.304 30.664 464.755 30.5467 465.134 30.312C465.518 30.072 465.816 29.7307 466.03 29.288L467.67 29.808C467.334 30.5813 466.824 31.1813 466.142 31.608C465.459 32.0293 464.699 32.24 463.862 32.24ZM460.782 28.152V26.848H466.95V28.152H460.782Z" fill="#EAEAEA"/>
<rect x="715" y="1" width="172" height="53" rx="11.2" fill="#485390"/>
<path d="M769.358 33.5V21.98H774.014C774.126 21.98 774.264 21.9853 774.43 21.996C774.595 22.0013 774.752 22.0173 774.902 22.044C775.542 22.1453 776.075 22.364 776.502 22.7C776.934 23.036 777.256 23.46 777.47 23.972C777.683 24.484 777.79 25.0493 777.79 25.668C777.79 26.5853 777.555 27.3773 777.086 28.044C776.616 28.7053 775.912 29.1187 774.974 29.284L774.294 29.364H771.03V33.5H769.358ZM776.094 33.5L773.822 28.812L775.51 28.38L778.006 33.5H776.094ZM771.03 27.78H773.95C774.056 27.78 774.174 27.7747 774.302 27.764C774.435 27.7533 774.56 27.7347 774.678 27.708C775.019 27.628 775.294 27.4813 775.502 27.268C775.71 27.0493 775.859 26.7987 775.95 26.516C776.04 26.2333 776.086 25.9507 776.086 25.668C776.086 25.3853 776.04 25.1053 775.95 24.828C775.859 24.5453 775.71 24.2973 775.502 24.084C775.294 23.8653 775.019 23.716 774.678 23.636C774.56 23.604 774.435 23.5827 774.302 23.572C774.174 23.5613 774.056 23.556 773.95 23.556H771.03V27.78ZM783.436 33.74C782.577 33.74 781.823 33.5533 781.172 33.18C780.527 32.8013 780.023 32.276 779.66 31.604C779.303 30.9267 779.124 30.1427 779.124 29.252C779.124 28.308 779.3 27.4893 779.652 26.796C780.009 26.1027 780.505 25.5667 781.14 25.188C781.775 24.8093 782.513 24.62 783.356 24.62C784.236 24.62 784.985 24.8253 785.604 25.236C786.223 25.6413 786.684 26.22 786.988 26.972C787.297 27.724 787.42 28.6173 787.356 29.652H785.684V29.044C785.673 28.0413 785.481 27.3 785.108 26.82C784.74 26.34 784.177 26.1 783.42 26.1C782.583 26.1 781.953 26.364 781.532 26.892C781.111 27.42 780.9 28.1827 780.9 29.18C780.9 30.1293 781.111 30.8653 781.532 31.388C781.953 31.9053 782.561 32.164 783.356 32.164C783.879 32.164 784.329 32.0467 784.708 31.812C785.092 31.572 785.391 31.2307 785.604 30.788L787.244 31.308C786.908 32.0813 786.399 32.6813 785.716 33.108C785.033 33.5293 784.273 33.74 783.436 33.74ZM780.356 29.652V28.348H786.524V29.652H780.356ZM791.014 33.5L787.878 24.86H789.566L791.862 31.404L794.158 24.86H795.846L792.71 33.5H791.014ZM800.647 33.74C799.789 33.74 799.034 33.5533 798.383 33.18C797.738 32.8013 797.234 32.276 796.871 31.604C796.514 30.9267 796.335 30.1427 796.335 29.252C796.335 28.308 796.511 27.4893 796.863 26.796C797.221 26.1027 797.717 25.5667 798.351 25.188C798.986 24.8093 799.725 24.62 800.567 24.62C801.447 24.62 802.197 24.8253 802.815 25.236C803.434 25.6413 803.895 26.22 804.199 26.972C804.509 27.724 804.631 28.6173 804.567 29.652H802.895V29.044C802.885 28.0413 802.693 27.3 802.319 26.82C801.951 26.34 801.389 26.1 800.631 26.1C799.794 26.1 799.165 26.364 798.743 26.892C798.322 27.42 798.111 28.1827 798.111 29.18C798.111 30.1293 798.322 30.8653 798.743 31.388C799.165 31.9053 799.773 32.164 800.567 32.164C801.09 32.164 801.541 32.0467 801.919 31.812C802.303 31.572 802.602 31.2307 802.815 30.788L804.455 31.308C804.119 32.0813 803.61 32.6813 802.927 33.108C802.245 33.5293 801.485 33.74 800.647 33.74ZM797.567 29.652V28.348H803.735V29.652H797.567ZM812.032 33.5V29.252C812.032 28.916 812.002 28.572 811.944 28.22C811.89 27.8627 811.784 27.532 811.624 27.228C811.469 26.924 811.248 26.6787 810.96 26.492C810.677 26.3053 810.306 26.212 809.848 26.212C809.549 26.212 809.266 26.2627 809 26.364C808.733 26.46 808.498 26.6173 808.296 26.836C808.098 27.0547 807.941 27.3427 807.824 27.7C807.712 28.0573 807.656 28.492 807.656 29.004L806.616 28.612C806.616 27.828 806.762 27.1373 807.056 26.54C807.349 25.9373 807.77 25.468 808.32 25.132C808.869 24.796 809.533 24.628 810.312 24.628C810.909 24.628 811.41 24.724 811.816 24.916C812.221 25.108 812.549 25.3613 812.8 25.676C813.056 25.9853 813.25 26.324 813.384 26.692C813.517 27.06 813.608 27.42 813.656 27.772C813.704 28.124 813.728 28.4333 813.728 28.7V33.5H812.032ZM805.96 33.5V24.86H807.456V27.356H807.656V33.5H805.96ZM818.908 33.732C818.31 33.732 817.809 33.636 817.404 33.444C816.998 33.252 816.668 33.0013 816.412 32.692C816.161 32.3773 815.969 32.036 815.836 31.668C815.702 31.3 815.612 30.94 815.564 30.588C815.516 30.236 815.492 29.9267 815.492 29.66V24.86H817.188V29.108C817.188 29.444 817.214 29.7907 817.268 30.148C817.326 30.5 817.433 30.828 817.588 31.132C817.748 31.436 817.969 31.6813 818.252 31.868C818.54 32.0547 818.913 32.148 819.372 32.148C819.67 32.148 819.953 32.1 820.22 32.004C820.486 31.9027 820.718 31.7427 820.916 31.524C821.118 31.3053 821.276 31.0173 821.388 30.66C821.505 30.3027 821.564 29.868 821.564 29.356L822.604 29.748C822.604 30.532 822.457 31.2253 822.164 31.828C821.87 32.4253 821.449 32.892 820.9 33.228C820.35 33.564 819.686 33.732 818.908 33.732ZM821.764 33.5V31.004H821.564V24.86H823.252V33.5H821.764ZM829.167 33.74C828.309 33.74 827.554 33.5533 826.903 33.18C826.258 32.8013 825.754 32.276 825.391 31.604C825.034 30.9267 824.855 30.1427 824.855 29.252C824.855 28.308 825.031 27.4893 825.383 26.796C825.741 26.1027 826.237 25.5667 826.871 25.188C827.506 24.8093 828.245 24.62 829.087 24.62C829.967 24.62 830.717 24.8253 831.335 25.236C831.954 25.6413 832.415 26.22 832.719 26.972C833.029 27.724 833.151 28.6173 833.087 29.652H831.415V29.044C831.405 28.0413 831.213 27.3 830.839 26.82C830.471 26.34 829.909 26.1 829.151 26.1C828.314 26.1 827.685 26.364 827.263 26.892C826.842 27.42 826.631 28.1827 826.631 29.18C826.631 30.1293 826.842 30.8653 827.263 31.388C827.685 31.9053 828.293 32.164 829.087 32.164C829.61 32.164 830.061 32.0467 830.439 31.812C830.823 31.572 831.122 31.2307 831.335 30.788L832.975 31.308C832.639 32.0813 832.13 32.6813 831.447 33.108C830.765 33.5293 830.005 33.74 829.167 33.74ZM826.087 29.652V28.348H832.255V29.652H826.087Z" fill="white"/>
<path opacity="0.4" d="M331.422 178.441C331.832 178.851 331.832 179.516 331.422 179.926L324.74 186.608C324.33 187.018 323.665 187.018 323.255 186.608C322.845 186.198 322.845 185.533 323.255 185.123L329.195 179.183L323.255 173.244C322.845 172.834 322.845 172.169 323.255 171.759C323.665 171.349 324.33 171.349 324.74 171.759L331.422 178.441ZM86.6375 57.2899V167.983H84.5375V57.2899H86.6375ZM96.7875 178.133H330.68V180.233H96.7875V178.133ZM86.6375 167.983C86.6375 173.589 91.1818 178.133 96.7875 178.133V180.233C90.022 180.233 84.5375 174.749 84.5375 167.983H86.6375Z" fill="url(#paint2_linear_1_15046)"/>
<path opacity="0.4" d="M331.422 27.5591C331.832 27.149 331.832 26.4842 331.422 26.0741L324.74 19.392C324.33 18.9819 323.665 18.9819 323.255 19.392C322.845 19.802 322.845 20.4669 323.255 20.8769L329.195 26.8166L323.255 32.7563C322.845 33.1664 322.845 33.8312 323.255 34.2412C323.665 34.6513 324.33 34.6513 324.74 34.2412L331.422 27.5591ZM86.6375 179.183V38.0166H84.5375V179.183H86.6375ZM96.7875 27.8666H330.68V25.7666H96.7875V27.8666ZM86.6375 38.0166C86.6375 32.4109 91.1818 27.8666 96.7875 27.8666V25.7666C90.022 25.7666 84.5375 31.2511 84.5375 38.0166H86.6375Z" fill="url(#paint3_linear_1_15046)"/>
<rect y="77" width="172" height="52" rx="11.2" fill="#527D8E"/>
<path d="M54.8998 103.933C57.4771 103.933 59.5665 101.844 59.5665 99.2668C59.5665 96.6894 57.4771 94.6001 54.8998 94.6001C52.3225 94.6001 50.2331 96.6894 50.2331 99.2668C50.2331 101.844 52.3225 103.933 54.8998 103.933Z" stroke="#FFFEFE" stroke-width="1.4" stroke-linecap="round" stroke-linejoin="round"/>
<path d="M62.3664 111.4C62.3664 109.42 61.5798 107.521 60.1795 106.12C58.7792 104.72 56.8801 103.933 54.8998 103.933C52.9195 103.933 51.0203 104.72 49.62 106.12C48.2198 107.521 47.4331 109.42 47.4331 111.4" stroke="#FFFEFE" stroke-width="1.4" stroke-linecap="round" stroke-linejoin="round"/>
<path d="M78.9137 109V97.48H80.5857V102.448H86.3457V97.48H88.0257V109H86.3457V104.024H80.5857V109H78.9137ZM93.8651 109.24C93.0011 109.24 92.2518 109.045 91.6171 108.656C90.9824 108.267 90.4918 107.731 90.1451 107.048C89.8038 106.36 89.6331 105.568 89.6331 104.672C89.6331 103.771 89.8091 102.979 90.1611 102.296C90.5131 101.608 91.0064 101.075 91.6411 100.696C92.2758 100.312 93.0171 100.12 93.8651 100.12C94.7291 100.12 95.4784 100.315 96.1131 100.704C96.7478 101.093 97.2384 101.629 97.5851 102.312C97.9318 102.995 98.1051 103.781 98.1051 104.672C98.1051 105.573 97.9291 106.368 97.5771 107.056C97.2304 107.739 96.7398 108.275 96.1051 108.664C95.4704 109.048 94.7238 109.24 93.8651 109.24ZM93.8651 107.664C94.6918 107.664 95.3078 107.387 95.7131 106.832C96.1238 106.272 96.3291 105.552 96.3291 104.672C96.3291 103.771 96.1211 103.051 95.7051 102.512C95.2944 101.968 94.6811 101.696 93.8651 101.696C93.3051 101.696 92.8438 101.824 92.4811 102.08C92.1184 102.331 91.8491 102.68 91.6731 103.128C91.4971 103.571 91.4091 104.085 91.4091 104.672C91.4091 105.579 91.6171 106.304 92.0331 106.848C92.4491 107.392 93.0598 107.664 93.8651 107.664ZM99.8631 109V97.24H101.535V109H99.8631ZM107.209 109.24C106.404 109.24 105.708 109.04 105.121 108.64C104.54 108.24 104.089 107.696 103.769 107.008C103.455 106.315 103.297 105.536 103.297 104.672C103.297 103.803 103.457 103.027 103.777 102.344C104.097 101.656 104.551 101.115 105.137 100.72C105.729 100.32 106.431 100.12 107.241 100.12C108.057 100.12 108.743 100.32 109.297 100.72C109.857 101.115 110.279 101.656 110.561 102.344C110.849 103.032 110.993 103.808 110.993 104.672C110.993 105.536 110.849 106.312 110.561 107C110.273 107.688 109.849 108.235 109.289 108.64C108.729 109.04 108.036 109.24 107.209 109.24ZM107.441 107.728C107.991 107.728 108.439 107.597 108.785 107.336C109.132 107.075 109.385 106.715 109.545 106.256C109.705 105.797 109.785 105.269 109.785 104.672C109.785 104.075 109.703 103.547 109.537 103.088C109.377 102.629 109.127 102.272 108.785 102.016C108.449 101.76 108.02 101.632 107.497 101.632C106.943 101.632 106.487 101.768 106.129 102.04C105.772 102.312 105.505 102.677 105.329 103.136C105.159 103.595 105.073 104.107 105.073 104.672C105.073 105.243 105.159 105.76 105.329 106.224C105.505 106.683 105.767 107.048 106.113 107.32C106.465 107.592 106.908 107.728 107.441 107.728ZM109.785 109V102.784H109.593V97.48H111.273V109H109.785ZM117.184 109.24C116.325 109.24 115.571 109.053 114.92 108.68C114.275 108.301 113.771 107.776 113.408 107.104C113.051 106.427 112.872 105.643 112.872 104.752C112.872 103.808 113.048 102.989 113.4 102.296C113.757 101.603 114.253 101.067 114.888 100.688C115.523 100.309 116.261 100.12 117.104 100.12C117.984 100.12 118.733 100.325 119.352 100.736C119.971 101.141 120.432 101.72 120.736 102.472C121.045 103.224 121.168 104.117 121.104 105.152H119.432V104.544C119.421 103.541 119.229 102.8 118.856 102.32C118.488 101.84 117.925 101.6 117.168 101.6C116.331 101.6 115.701 101.864 115.28 102.392C114.859 102.92 114.648 103.683 114.648 104.68C114.648 105.629 114.859 106.365 115.28 106.888C115.701 107.405 116.309 107.664 117.104 107.664C117.627 107.664 118.077 107.547 118.456 107.312C118.84 107.072 119.139 106.731 119.352 106.288L120.992 106.808C120.656 107.581 120.147 108.181 119.464 108.608C118.781 109.029 118.021 109.24 117.184 109.24ZM114.104 105.152V103.848H120.272V105.152H114.104ZM122.739 109V100.36H124.227V102.456L124.019 102.184C124.125 101.907 124.264 101.653 124.435 101.424C124.605 101.189 124.803 100.997 125.027 100.848C125.245 100.688 125.488 100.565 125.755 100.48C126.027 100.389 126.304 100.336 126.587 100.32C126.869 100.299 127.141 100.312 127.403 100.36V101.928C127.12 101.853 126.805 101.832 126.459 101.864C126.117 101.896 125.803 102.005 125.515 102.192C125.243 102.368 125.027 102.581 124.867 102.832C124.712 103.083 124.6 103.363 124.531 103.672C124.461 103.976 124.427 104.299 124.427 104.64V109H122.739Z" fill="white"/>
<defs>
<linearGradient id="paint0_linear_1_15046" x1="585" y1="29" x2="701" y2="29" gradientUnits="userSpaceOnUse">
<stop stop-color="white" stop-opacity="0"/>
<stop offset="1" stop-color="white"/>
</linearGradient>
<linearGradient id="paint1_linear_1_15046" x1="585" y1="181" x2="701" y2="181" gradientUnits="userSpaceOnUse">
<stop stop-color="white" stop-opacity="0"/>
<stop offset="1" stop-color="white"/>
</linearGradient>
<linearGradient id="paint2_linear_1_15046" x1="518.27" y1="242.883" x2="92.5359" y2="40.2464" gradientUnits="userSpaceOnUse">
<stop stop-color="white"/>
<stop offset="1" stop-color="white" stop-opacity="0"/>
</linearGradient>
<linearGradient id="paint3_linear_1_15046" x1="518.27" y1="-52.8074" x2="62.2111" y2="120.848" gradientUnits="userSpaceOnUse">
<stop stop-color="white"/>
<stop offset="1" stop-color="white" stop-opacity="0"/>
</linearGradient>
</defs>
</svg>
